<svg class="text-black  w-5 h-5 md:w-6 md:h-6 " viewBox="0 0 22 23" fill="none" xmlns="http://www.w3.org/2000/svg"><path d="M8.44031 8.77839L9.78281 7.54839C10.1499 7.21142 10.4079 6.77243 10.5237 6.28778C10.6395 5.80313 10.6079 5.29493 10.4328 4.82839L9.86031 3.29964C9.64642 2.72892 9.22298 2.26121 8.67627 1.9918C8.12956 1.72239 7.5007 1.67155 6.91781 1.84964C4.77281 2.50589 3.12406 4.49964 3.63156 6.86714C3.96531 8.42464 4.60406 10.3796 5.81406 12.4596C7.02656 14.5446 8.41156 16.0846 9.59906 17.1671C11.3916 18.7984 13.9541 18.3909 15.6028 16.8534C16.0445 16.4412 16.3125 15.8761 16.3522 15.2732C16.3919 14.6703 16.2004 14.075 15.8166 13.6084L14.7666 12.3334C14.4499 11.9478 14.0251 11.6658 13.5468 11.5237C13.0685 11.3816 12.5587 11.3858 12.0828 11.5359L10.3478 12.0821C9.89948 11.62 9.50681 11.1069 9.17781 10.5534C8.86032 9.99367 8.61264 9.39713 8.44031 8.77714" fill="currentColor"></path></svg>