<svg width="24" height="24" class=" w-5 h-5 " viewBox="0 0 21 20" fill="none" xmlns="http://www.w3.org/2000/svg"><g clip-path="url(#clip0_4094_2024)"><path d="M3.88127 5.92625L9.79794 11.4738C9.97297 11.638 10.2068 11.7354 10.4541 11.7473C10.7014 11.7592 10.9446 11.6847 11.1366 11.5381L11.2126 11.4738L17.1253 5.93C17.1446 5.99875 17.1573 6.06875 17.1639 6.14062L17.1693 6.25V13.75C17.1694 14.0654 17.0423 14.3691 16.8136 14.6003C16.5849 14.8316 16.2714 14.9732 15.9359 14.9969L15.8359 15H5.16927C4.83289 15.0001 4.50889 14.881 4.26224 14.6666C4.01558 14.4521 3.8645 14.1582 3.83927 13.8438L3.83594 13.75V6.25C3.83594 6.175 3.8426 6.1025 3.85594 6.03125L3.88127 5.92625ZM15.8359 5C15.9166 5 15.9959 5.00625 16.0726 5.01938L16.1859 5.04375L10.5059 10.3688L4.82394 5.0425C4.89727 5.02375 4.97327 5.01125 5.0506 5.005L5.16927 5H15.8359Z" fill="currentColor"></path></g><defs><clipPath id="clip0_4094_2024"><rect width="20" height="20" fill="white" transform="translate(0.5)"></rect></clipPath></defs></svg>